<svg width="590" height="147" viewBox="0 0 590 147" fill="none" xmlns="http://www.w3.org/2000/svg">
<path d="M561.589 88.364C556.789 88.364 552.981 87.116 550.165 84.62C547.413 82.06 546.037 77.996 546.037 72.428V41.132L545.845 40.556L548.437 29.516H558.613V70.412C558.613 72.46 559.093 73.964 560.053 74.924C561.077 75.82 562.357 76.268 563.893 76.268C564.917 76.268 565.845 76.204 566.677 76.076C567.509 75.884 568.245 75.692 568.885 75.5V87.212C567.861 87.596 566.773 87.884 565.621 88.076C564.469 88.268 563.125 88.364 561.589 88.364ZM538.741 52.172V40.556H568.885V52.172H538.741Z" fill="#020617"/>
<path d="M521.015 87.5L509.975 70.22H513.527L502.583 87.5H488.183L506.039 61.676L506.135 66.38L488.375 40.556H502.775L513.623 57.74H509.879L520.727 40.556H535.127L517.367 66.38L517.559 61.676L535.319 87.5H521.015Z" fill="#020617"/>
<path d="M462.608 88.46C457.936 88.46 453.84 87.468 450.32 85.484C446.8 83.436 444.08 80.588 442.16 76.94C440.24 73.292 439.28 69.004 439.28 64.076C439.28 59.212 440.24 54.956 442.16 51.308C444.08 47.596 446.8 44.716 450.32 42.668C453.84 40.556 457.936 39.5 462.608 39.5C467.344 39.5 471.44 40.556 474.896 42.668C478.416 44.78 481.136 47.692 483.056 51.404C484.976 55.052 485.936 59.244 485.936 63.98C485.936 64.684 485.904 65.388 485.84 66.092C485.84 66.732 485.776 67.276 485.648 67.724H449.552V58.316H476.144L474.224 62.828C474.224 58.86 473.264 55.628 471.344 53.132C469.488 50.636 466.576 49.388 462.608 49.388C459.152 49.388 456.368 50.476 454.256 52.652C452.144 54.764 451.088 57.612 451.088 61.196V66.284C451.088 70.06 452.144 73.036 454.256 75.212C456.432 77.324 459.376 78.38 463.088 78.38C466.352 78.38 468.912 77.708 470.768 76.364C472.624 75.02 474.224 73.356 475.568 71.372L484.304 76.364C482.192 80.268 479.312 83.276 475.664 85.388C472.08 87.436 467.728 88.46 462.608 88.46Z" fill="#020617"/>
<path d="M418.949 87.5L381.125 37.004L386.885 35.372V87.5H374.309V22.124H385.541L422.501 71.468L417.605 72.14V22.124H430.181V87.5H418.949Z" fill="#020617"/>
<path d="M311.045 87.5L296.741 40.556H309.125L319.109 76.364H315.365L326.885 40.556H337.061L348.581 76.364H344.933L354.917 40.556H366.917L352.517 87.5H341.381L330.245 53.9H333.701L322.469 87.5H311.045Z" fill="#020617"/>
<path d="M270.728 88.652C265.864 88.652 261.576 87.628 257.864 85.58C254.216 83.468 251.368 80.588 249.32 76.94C247.272 73.228 246.248 68.94 246.248 64.076C246.248 59.212 247.272 54.956 249.32 51.308C251.368 47.596 254.216 44.716 257.864 42.668C261.576 40.556 265.864 39.5 270.728 39.5C275.592 39.5 279.848 40.556 283.496 42.668C287.208 44.716 290.088 47.596 292.136 51.308C294.184 54.956 295.208 59.212 295.208 64.076C295.208 68.94 294.184 73.228 292.136 76.94C290.088 80.588 287.208 83.468 283.496 85.58C279.848 87.628 275.592 88.652 270.728 88.652ZM270.728 76.46C274.184 76.46 277 75.308 279.176 73.004C281.352 70.7 282.44 67.724 282.44 64.076C282.44 60.364 281.352 57.356 279.176 55.052C277 52.748 274.184 51.596 270.728 51.596C267.272 51.596 264.456 52.748 262.28 55.052C260.168 57.292 259.112 60.268 259.112 63.98C259.112 67.692 260.168 70.7 262.28 73.004C264.456 75.308 267.272 76.46 270.728 76.46Z" fill="#020617"/>
<path d="M226.284 40.556L229.452 53.516V87.5H216.876V40.556H226.284ZM226.86 59.948L224.556 58.892V49.292L225.42 48.236C226.124 47.084 227.18 45.836 228.588 44.492C230.06 43.148 231.724 41.996 233.58 41.036C235.5 40.012 237.484 39.5 239.532 39.5C240.556 39.5 241.484 39.564 242.316 39.692C243.148 39.82 243.788 40.044 244.236 40.364V51.788H241.164C237.004 51.788 233.804 52.46 231.564 53.804C229.324 55.084 227.756 57.132 226.86 59.948Z" fill="#020617"/>
<path d="M177.924 88.652C171.332 88.652 165.54 87.212 160.548 84.332C155.556 81.388 151.684 77.388 148.932 72.332C146.18 67.276 144.804 61.548 144.804 55.148C144.804 50.156 145.604 45.58 147.204 41.42C148.868 37.26 151.172 33.676 154.116 30.668C157.124 27.596 160.644 25.228 164.676 23.564C168.708 21.9 173.124 21.068 177.924 21.068C185.412 21.068 191.588 22.668 196.452 25.868C201.316 29.004 205.124 33.356 207.876 38.924L196.164 43.34C193.796 39.628 191.108 37.036 188.1 35.564C185.156 34.028 181.764 33.26 177.924 33.26C174.02 33.26 170.532 34.188 167.46 36.044C164.452 37.836 162.052 40.364 160.26 43.628C158.532 46.892 157.668 50.732 157.668 55.148C157.668 59.372 158.532 63.116 160.26 66.38C162.052 69.644 164.452 72.204 167.46 74.06C170.532 75.852 174.02 76.748 177.924 76.748C181.636 76.748 184.932 76.012 187.812 74.54C190.756 73.004 193.092 70.924 194.82 68.3C196.548 65.612 197.476 62.508 197.604 58.988L200.772 64.076H177.06V52.652H208.932C209.188 53.548 209.38 54.54 209.508 55.628C209.636 56.652 209.7 57.676 209.7 58.7C209.7 63.052 208.868 67.052 207.204 70.7C205.54 74.348 203.236 77.516 200.292 80.204C197.412 82.892 194.052 84.972 190.212 86.444C186.436 87.916 182.34 88.652 177.924 88.652Z" fill="#020617"/>
<path d="M548.118 126L542.289 107.529H546.074L549.897 121.117H549.556L553.871 107.529H557.316L561.631 121.117H561.29L565.113 107.529H568.898L563.069 126H559.852L555.272 111.579H555.915L551.335 126H548.118Z" fill="#020617"/>
<path d="M531.736 126.378C529.869 126.378 528.216 125.987 526.778 125.205C525.365 124.398 524.267 123.275 523.485 121.836C522.703 120.398 522.312 118.72 522.312 116.802C522.312 114.859 522.703 113.169 523.485 111.731C524.267 110.292 525.365 109.169 526.778 108.362C528.216 107.554 529.869 107.151 531.736 107.151C533.629 107.151 535.282 107.554 536.695 108.362C538.108 109.169 539.205 110.292 539.988 111.731C540.795 113.169 541.199 114.859 541.199 116.802C541.199 118.72 540.795 120.398 539.988 121.836C539.205 123.275 538.108 124.398 536.695 125.205C535.282 125.987 533.629 126.378 531.736 126.378ZM531.736 122.745C533.427 122.745 534.777 122.202 535.786 121.117C536.821 120.007 537.338 118.569 537.338 116.802C537.338 115.011 536.821 113.56 535.786 112.45C534.777 111.339 533.427 110.784 531.736 110.784C530.071 110.784 528.721 111.339 527.686 112.45C526.677 113.535 526.172 114.973 526.172 116.765C526.172 118.556 526.677 120.007 527.686 121.117C528.721 122.202 530.071 122.745 531.736 122.745Z" fill="#020617"/>
<path d="M514.569 107.529L515.477 112.525V126H511.692V107.529H514.569ZM514.91 114.077L514.001 113.661V110.898L514.342 110.481C514.594 110.027 514.985 109.548 515.515 109.043C516.07 108.513 516.714 108.072 517.445 107.718C518.177 107.34 518.922 107.151 519.679 107.151C520.057 107.151 520.41 107.176 520.738 107.226C521.092 107.277 521.357 107.365 521.533 107.491V110.898H520.36C518.644 110.898 517.395 111.163 516.613 111.693C515.831 112.197 515.263 112.992 514.91 114.077Z" fill="#020617"/>
<path d="M495.888 126.378C493.289 126.378 491.006 125.811 489.037 124.675C487.095 123.515 485.581 121.937 484.495 119.944C483.41 117.925 482.868 115.654 482.868 113.131C482.868 111.213 483.196 109.447 483.852 107.832C484.508 106.217 485.416 104.817 486.577 103.631C487.763 102.445 489.138 101.524 490.703 100.868C492.293 100.212 494.021 99.8835 495.888 99.8835C498.815 99.8835 501.213 100.489 503.08 101.7C504.947 102.886 506.474 104.489 507.66 106.507L503.95 107.605C502.79 106.015 501.541 104.943 500.203 104.388C498.891 103.807 497.453 103.517 495.888 103.517C494.147 103.517 492.583 103.933 491.195 104.766C489.832 105.599 488.747 106.734 487.94 108.173C487.132 109.611 486.729 111.264 486.729 113.131C486.729 114.973 487.132 116.626 487.94 118.089C488.747 119.528 489.832 120.663 491.195 121.496C492.583 122.329 494.147 122.745 495.888 122.745C497.554 122.745 499.068 122.379 500.43 121.647C501.818 120.89 502.916 119.868 503.723 118.581C504.531 117.294 504.934 115.831 504.934 114.191L505.502 116.386H495.661V112.828H508.303C508.379 113.081 508.429 113.371 508.455 113.699C508.505 114.027 508.53 114.342 508.53 114.645C508.53 116.26 508.215 117.774 507.584 119.187C506.953 120.6 506.057 121.849 504.897 122.934C503.761 124.019 502.424 124.864 500.885 125.47C499.371 126.076 497.705 126.378 495.888 126.378Z" fill="#020617"/>
<path d="M453.416 122.556L458.715 115.099L453.416 107.529H457.276L462.651 115.061L457.314 122.556H453.416ZM461.023 122.556L466.323 115.099L461.023 107.529H464.884L470.259 115.061L464.922 122.556H461.023Z" fill="#020617"/>
<path d="M431.927 126.378C430.135 126.378 428.558 125.987 427.196 125.205C425.833 124.398 424.773 123.275 424.016 121.836C423.259 120.398 422.881 118.72 422.881 116.802C422.881 114.859 423.259 113.169 424.016 111.731C424.773 110.292 425.833 109.169 427.196 108.362C428.558 107.554 430.135 107.151 431.927 107.151C433.744 107.151 435.333 107.554 436.696 108.362C438.059 109.169 439.118 110.292 439.875 111.731C440.632 113.169 441.011 114.859 441.011 116.802C441.011 116.979 440.998 117.168 440.973 117.37C440.973 117.547 440.96 117.711 440.935 117.862H426.477V114.607H438.21L437.15 116.802C437.15 114.885 436.721 113.308 435.863 112.071C435.005 110.835 433.693 110.217 431.927 110.217C430.362 110.217 429.113 110.721 428.18 111.731C427.246 112.715 426.779 114.014 426.779 115.629V117.597C426.779 119.288 427.234 120.638 428.142 121.647C429.05 122.631 430.312 123.123 431.927 123.123C433.416 123.123 434.564 122.808 435.371 122.177C436.179 121.546 436.885 120.764 437.491 119.83L440.33 121.609C439.472 123.199 438.361 124.398 436.999 125.205C435.661 125.987 433.971 126.378 431.927 126.378Z" fill="#020617"/>
<path d="M417.596 126.341C415.982 126.341 414.695 125.874 413.736 124.94C412.802 123.981 412.335 122.505 412.335 120.512V107.756V107.529L413.054 103.366H416.12V120.587C416.12 121.294 416.297 121.824 416.65 122.177C417.029 122.53 417.496 122.707 418.051 122.707C418.48 122.707 418.858 122.682 419.186 122.631C419.514 122.581 419.804 122.518 420.057 122.442V125.962C419.729 126.063 419.363 126.151 418.959 126.227C418.581 126.303 418.126 126.341 417.596 126.341ZM409.497 111.011V107.529H420.057V111.011H409.497Z" fill="#020617"/>
<path d="M398.462 126.53C397.024 126.53 395.787 126.278 394.753 125.773C393.718 125.268 392.923 124.549 392.368 123.615C391.838 122.657 391.573 121.521 391.573 120.209C391.573 118.998 391.851 117.925 392.406 116.992C392.961 116.033 393.756 115.276 394.79 114.721C395.825 114.166 397.049 113.888 398.462 113.888C400.228 113.888 401.641 114.292 402.701 115.099C403.786 115.881 404.543 116.966 404.972 118.354H402.853V113.623C402.853 112.841 402.588 112.122 402.058 111.466C401.528 110.81 400.594 110.481 399.257 110.481C398.55 110.481 397.768 110.57 396.91 110.746C396.077 110.898 395.207 111.175 394.298 111.579L393.163 108.665C394.198 108.16 395.27 107.782 396.38 107.529C397.49 107.277 398.575 107.151 399.635 107.151C401.225 107.151 402.537 107.441 403.572 108.021C404.606 108.602 405.376 109.384 405.881 110.368C406.385 111.327 406.638 112.412 406.638 113.623V126H403.912L402.966 122.631L404.972 122.064C404.518 123.552 403.71 124.675 402.55 125.432C401.389 126.164 400.026 126.53 398.462 126.53ZM399.143 123.161C400.254 123.161 401.149 122.909 401.831 122.404C402.512 121.874 402.853 121.143 402.853 120.209C402.853 119.25 402.512 118.518 401.831 118.014C401.149 117.509 400.254 117.257 399.143 117.257C398.033 117.257 397.137 117.509 396.456 118.014C395.775 118.518 395.434 119.25 395.434 120.209C395.434 121.143 395.775 121.874 396.456 122.404C397.137 122.909 398.033 123.161 399.143 123.161Z" fill="#020617"/>
<path d="M383.683 107.529L384.592 112.525V126H380.807V107.529H383.683ZM384.024 114.077L383.115 113.661V110.898L383.456 110.481C383.708 110.027 384.1 109.548 384.63 109.043C385.185 108.513 385.828 108.072 386.56 107.718C387.292 107.34 388.036 107.151 388.793 107.151C389.171 107.151 389.525 107.176 389.853 107.226C390.206 107.277 390.471 107.365 390.648 107.491V110.898H389.474C387.758 110.898 386.509 111.163 385.727 111.693C384.945 112.197 384.377 112.992 384.024 114.077Z" fill="#020617"/>
<path d="M367.769 126.378C365.902 126.378 364.249 125.987 362.811 125.205C361.398 124.398 360.3 123.275 359.518 121.836C358.736 120.398 358.344 118.72 358.344 116.802C358.344 114.859 358.736 113.169 359.518 111.731C360.3 110.292 361.398 109.169 362.811 108.362C364.249 107.554 365.902 107.151 367.769 107.151C369.662 107.151 371.314 107.554 372.727 108.362C374.141 109.169 375.238 110.292 376.02 111.731C376.828 113.169 377.232 114.859 377.232 116.802C377.232 118.72 376.828 120.398 376.02 121.836C375.238 123.275 374.141 124.398 372.727 125.205C371.314 125.987 369.662 126.378 367.769 126.378ZM367.769 122.745C369.46 122.745 370.81 122.202 371.819 121.117C372.854 120.007 373.371 118.569 373.371 116.802C373.371 115.011 372.854 113.56 371.819 112.45C370.81 111.339 369.46 110.784 367.769 110.784C366.104 110.784 364.754 111.339 363.719 112.45C362.71 113.535 362.205 114.973 362.205 116.765C362.205 118.556 362.71 120.007 363.719 121.117C364.754 122.202 366.104 122.745 367.769 122.745Z" fill="#020617"/>
<path d="M347.944 126.378C346.279 126.378 344.828 125.975 343.591 125.167C342.355 124.36 341.383 123.237 340.677 121.799C339.995 120.335 339.655 118.644 339.655 116.727C339.655 114.809 339.995 113.131 340.677 111.693C341.383 110.254 342.355 109.144 343.591 108.362C344.828 107.554 346.279 107.151 347.944 107.151C349.66 107.151 351.149 107.554 352.41 108.362C353.697 109.144 354.694 110.254 355.4 111.693C356.107 113.131 356.46 114.809 356.46 116.727C356.46 118.644 356.107 120.335 355.4 121.799C354.694 123.237 353.697 124.36 352.41 125.167C351.149 125.975 349.66 126.378 347.944 126.378ZM338.595 126V100.224H342.38V111.768H342.001V122.291H342.38L341.472 126H338.595ZM347.376 123.123C348.941 123.123 350.202 122.543 351.161 121.382C352.12 120.196 352.599 118.644 352.599 116.727C352.599 114.834 352.12 113.308 351.161 112.147C350.202 110.986 348.941 110.406 347.376 110.406C345.837 110.406 344.588 110.986 343.629 112.147C342.67 113.308 342.191 114.847 342.191 116.765C342.191 118.682 342.67 120.222 343.629 121.382C344.588 122.543 345.837 123.123 347.376 123.123Z" fill="#020617"/>
<path d="M325.719 126.53C324.281 126.53 323.044 126.278 322.01 125.773C320.975 125.268 320.18 124.549 319.625 123.615C319.095 122.657 318.83 121.521 318.83 120.209C318.83 118.998 319.108 117.925 319.663 116.992C320.218 116.033 321.013 115.276 322.047 114.721C323.082 114.166 324.306 113.888 325.719 113.888C327.485 113.888 328.898 114.292 329.958 115.099C331.043 115.881 331.8 116.966 332.229 118.354H330.109V113.623C330.109 112.841 329.845 112.122 329.315 111.466C328.785 110.81 327.851 110.481 326.514 110.481C325.807 110.481 325.025 110.57 324.167 110.746C323.334 110.898 322.464 111.175 321.555 111.579L320.42 108.665C321.454 108.16 322.527 107.782 323.637 107.529C324.747 107.277 325.832 107.151 326.892 107.151C328.482 107.151 329.794 107.441 330.829 108.021C331.863 108.602 332.633 109.384 333.138 110.368C333.642 111.327 333.895 112.412 333.895 113.623V126H331.169L330.223 122.631L332.229 122.064C331.775 123.552 330.967 124.675 329.807 125.432C328.646 126.164 327.283 126.53 325.719 126.53ZM326.4 123.161C327.51 123.161 328.406 122.909 329.088 122.404C329.769 121.874 330.109 121.143 330.109 120.209C330.109 119.25 329.769 118.518 329.088 118.014C328.406 117.509 327.51 117.257 326.4 117.257C325.29 117.257 324.394 117.509 323.713 118.014C323.032 118.518 322.691 119.25 322.691 120.209C322.691 121.143 323.032 121.874 323.713 122.404C324.394 122.909 325.29 123.161 326.4 123.161Z" fill="#020617"/>
<path d="M314.352 126.189C313.696 126.189 313.116 126.038 312.611 125.735C312.107 125.407 311.703 124.94 311.4 124.335C311.123 123.729 310.984 122.985 310.984 122.101V100.224H314.693V120.777C314.693 121.559 314.882 122.089 315.261 122.366C315.665 122.644 316.119 122.783 316.623 122.783V125.811C316.295 125.937 315.942 126.025 315.564 126.076C315.185 126.151 314.781 126.189 314.352 126.189Z" fill="#020617"/>
<path d="M305.001 126.189C304.345 126.189 303.764 126.038 303.26 125.735C302.755 125.407 302.351 124.94 302.048 124.335C301.771 123.729 301.632 122.985 301.632 122.101V100.224H305.341V120.777C305.341 121.559 305.531 122.089 305.909 122.366C306.313 122.644 306.767 122.783 307.272 122.783V125.811C306.944 125.937 306.59 126.025 306.212 126.076C305.833 126.151 305.43 126.189 305.001 126.189Z" fill="#020617"/>
<path d="M288.595 126.378C286.727 126.378 285.075 125.987 283.636 125.205C282.223 124.398 281.125 123.275 280.343 121.836C279.561 120.398 279.17 118.72 279.17 116.802C279.17 114.859 279.561 113.169 280.343 111.731C281.125 110.292 282.223 109.169 283.636 108.362C285.075 107.554 286.727 107.151 288.595 107.151C290.487 107.151 292.14 107.554 293.553 108.362C294.966 109.169 296.064 110.292 296.846 111.731C297.653 113.169 298.057 114.859 298.057 116.802C298.057 118.72 297.653 120.398 296.846 121.836C296.064 123.275 294.966 124.398 293.553 125.205C292.14 125.987 290.487 126.378 288.595 126.378ZM288.595 122.745C290.285 122.745 291.635 122.202 292.645 121.117C293.679 120.007 294.196 118.569 294.196 116.802C294.196 115.011 293.679 113.56 292.645 112.45C291.635 111.339 290.285 110.784 288.595 110.784C286.929 110.784 285.579 111.339 284.545 112.45C283.535 113.535 283.031 114.973 283.031 116.765C283.031 118.556 283.535 120.007 284.545 121.117C285.579 122.202 286.929 122.745 288.595 122.745Z" fill="#020617"/>
<path d="M265.499 126.378C262.9 126.378 260.616 125.811 258.648 124.675C256.705 123.515 255.191 121.937 254.106 119.944C253.021 117.925 252.478 115.654 252.478 113.131C252.478 111.213 252.806 109.447 253.462 107.832C254.118 106.217 255.027 104.817 256.188 103.631C257.374 102.445 258.749 101.524 260.313 100.868C261.903 100.212 263.631 99.8835 265.499 99.8835C268.426 99.8835 270.823 100.489 272.69 101.7C274.557 102.886 276.084 104.489 277.27 106.507L273.561 107.605C272.4 106.015 271.151 104.943 269.814 104.388C268.501 103.807 267.063 103.517 265.499 103.517C263.758 103.517 262.193 103.933 260.805 104.766C259.443 105.599 258.358 106.734 257.55 108.173C256.743 109.611 256.339 111.264 256.339 113.131C256.339 114.973 256.743 116.626 257.55 118.089C258.358 119.528 259.443 120.663 260.805 121.496C262.193 122.329 263.758 122.745 265.499 122.745C267.063 122.745 268.501 122.467 269.814 121.912C271.151 121.332 272.4 120.247 273.561 118.657L277.27 119.755C276.084 121.773 274.557 123.388 272.69 124.6C270.823 125.785 268.426 126.378 265.499 126.378Z" fill="#020617"/>
<path d="M223.026 122.556L228.325 115.099L223.026 107.529H226.887L232.261 115.061L226.925 122.556H223.026ZM230.634 122.556L235.933 115.099L230.634 107.529H234.495L239.869 115.061L234.532 122.556H230.634Z" fill="#020617"/>
<path d="M203.891 107.151C205.203 107.151 206.238 107.378 206.995 107.832C207.752 108.261 208.307 108.854 208.66 109.611C209.013 110.343 209.24 111.175 209.341 112.109C209.442 113.043 209.493 114.002 209.493 114.986V126H205.708V114.191C205.708 112.879 205.405 111.995 204.799 111.541C204.219 111.087 203.525 110.86 202.718 110.86C201.91 110.86 201.09 111.024 200.257 111.352C199.425 111.68 198.68 112.122 198.024 112.677C197.368 113.232 196.863 113.85 196.51 114.531V112.412H197.116V126H193.331V107.529H196.207L197.002 110.784L196.056 110.898C196.763 110.09 197.532 109.409 198.365 108.854C199.198 108.299 200.081 107.882 201.014 107.605C201.948 107.302 202.907 107.151 203.891 107.151Z" fill="#020617"/>
<path d="M180.455 126.53C179.016 126.53 177.78 126.278 176.745 125.773C175.711 125.268 174.916 124.549 174.361 123.615C173.831 122.657 173.566 121.521 173.566 120.209C173.566 118.998 173.844 117.925 174.399 116.992C174.954 116.033 175.749 115.276 176.783 114.721C177.818 114.166 179.042 113.888 180.455 113.888C182.221 113.888 183.634 114.292 184.694 115.099C185.779 115.881 186.536 116.966 186.965 118.354H184.845V113.623C184.845 112.841 184.58 112.122 184.05 111.466C183.521 110.81 182.587 110.481 181.25 110.481C180.543 110.481 179.761 110.57 178.903 110.746C178.07 110.898 177.2 111.175 176.291 111.579L175.156 108.665C176.19 108.16 177.263 107.782 178.373 107.529C179.483 107.277 180.568 107.151 181.628 107.151C183.218 107.151 184.53 107.441 185.564 108.021C186.599 108.602 187.369 109.384 187.873 110.368C188.378 111.327 188.63 112.412 188.63 113.623V126H185.905L184.959 122.631L186.965 122.064C186.511 123.552 185.703 124.675 184.543 125.432C183.382 126.164 182.019 126.53 180.455 126.53ZM181.136 123.161C182.246 123.161 183.142 122.909 183.823 122.404C184.505 121.874 184.845 121.143 184.845 120.209C184.845 119.25 184.505 118.518 183.823 118.014C183.142 117.509 182.246 117.257 181.136 117.257C180.026 117.257 179.13 117.509 178.449 118.014C177.767 118.518 177.427 119.25 177.427 120.209C177.427 121.143 177.767 121.874 178.449 122.404C179.13 122.909 180.026 123.161 181.136 123.161Z" fill="#020617"/>
<path d="M169.088 126.189C168.432 126.189 167.852 126.038 167.347 125.735C166.842 125.407 166.439 124.94 166.136 124.335C165.858 123.729 165.72 122.985 165.72 122.101V100.224H169.429V120.777C169.429 121.559 169.618 122.089 169.997 122.366C170.4 122.644 170.855 122.783 171.359 122.783V125.811C171.031 125.937 170.678 126.025 170.299 126.076C169.921 126.151 169.517 126.189 169.088 126.189Z" fill="#020617"/>
<path d="M147.921 114.115H153.258C154.923 114.115 156.261 113.661 157.27 112.752C158.279 111.844 158.784 110.582 158.784 108.967C158.784 107.252 158.279 105.965 157.27 105.107C156.286 104.224 154.961 103.782 153.296 103.782H147.921L148.602 102.911V126H144.817V100.224H153.939C155.705 100.224 157.245 100.615 158.557 101.397C159.869 102.18 160.891 103.227 161.623 104.539C162.354 105.851 162.72 107.327 162.72 108.967C162.72 110.582 162.354 112.059 161.623 113.396C160.891 114.708 159.856 115.755 158.519 116.537C157.207 117.294 155.668 117.673 153.901 117.673H147.921V114.115Z" fill="#020617"/>
<path d="M21 29C21 24.5817 24.5817 21 29 21H118C122.418 21 126 24.5817 126 29V118C126 122.418 122.418 126 118 126H29C24.5817 126 21 122.418 21 118V29Z" fill="#020617"/>
<path d="M105.105 94L81.465 62.44L85.065 61.42V94H77.205V53.14H84.225L107.325 83.98L104.265 84.4V53.14H112.125V94H105.105Z" fill="white"/>
<path d="M52.1399 94.72C48.0199 94.72 44.3999 93.82 41.2799 92.02C38.1599 90.18 35.7399 87.68 34.0199 84.52C32.2999 81.36 31.4399 77.78 31.4399 73.78C31.4399 70.66 31.9399 67.8 32.9399 65.2C33.9799 62.6 35.4199 60.36 37.2599 58.48C39.1399 56.56 41.3399 55.08 43.8599 54.04C46.3799 53 49.1399 52.48 52.1399 52.48C56.8199 52.48 60.6799 53.48 63.7199 55.48C66.7599 57.44 69.1399 60.16 70.8599 63.64L63.5399 66.4C62.0599 64.08 60.3799 62.46 58.4999 61.54C56.6599 60.58 54.5399 60.1 52.1399 60.1C49.6999 60.1 47.5199 60.68 45.5999 61.84C43.7199 62.96 42.2199 64.54 41.0999 66.58C40.0199 68.62 39.4799 71.02 39.4799 73.78C39.4799 76.42 40.0199 78.76 41.0999 80.8C42.2199 82.84 43.7199 84.44 45.5999 85.6C47.5199 86.72 49.6999 87.28 52.1399 87.28C54.4599 87.28 56.5199 86.82 58.3199 85.9C60.1599 84.94 61.6199 83.64 62.6999 82C63.7799 80.32 64.3599 78.38 64.4399 76.18L66.4199 79.36H51.5999V72.22H71.5199C71.6799 72.78 71.7999 73.4 71.8799 74.08C71.9599 74.72 71.9999 75.36 71.9999 76C71.9999 78.72 71.4799 81.22 70.4399 83.5C69.3999 85.78 67.9599 87.76 66.1199 89.44C64.3199 91.12 62.2199 92.42 59.8199 93.34C57.4599 94.26 54.8999 94.72 52.1399 94.72Z" fill="white"/>
<path d="M582 145V147H8V145H582ZM588 139V8C588 4.6863 585.314 2.00001 582 2H8C4.68629 2 2 4.68629 2 8V139C2 142.314 4.68629 145 8 145V147C3.58173 147 0 143.418 0 139V8C1.06101e-06 3.71994 3.36114 0.225231 7.58789 0.0107422L8 0H582L582.412 0.0107422C586.639 0.225236 590 3.71995 590 8V139L589.989 139.412C589.775 143.639 586.28 147 582 147V145C585.314 145 588 142.314 588 139Z" fill="#020617"/>
</svg>
